<mxfile host="app.diagrams.net" modified="2024-01-25T10:50:05.181Z" agent="Mozilla/5.0 (Windows NT 10.0; Win64; x64) AppleWebKit/537.36 (KHTML, like Gecko) Chrome/120.0.0.0 Safari/537.36 Edg/120.0.0.0" version="23.0.1" etag="9ErNU68WOwofIO0e-nV4" type="github">
  <diagram name="第 1 页" id="K2XHJgyAMaRi_ibZnJmA">
    <mxGraphModel>
      <root>
        <mxCell id="0" />
        <mxCell id="1" parent="0" />
      </root>
    </mxGraphModel>
  </diagram>
</mxfile>
